<?xml version="1.0" encoding="UTF-8"?>
<svg width="40px" height="40px" viewBox="0 0 40 40" version="1.1" xmlns="http://www.w3.org/2000/svg" xmlns:xlink="http://www.w3.org/1999/xlink">
    <!-- Generator: Sketch 51 (57462) - http://www.bohemiancoding.com/sketch -->
    <title>dribbble</title>
    <desc>Created with Sketch.</desc>
    <defs></defs>
    <g id="Page-1" stroke="none" stroke-width="1" fill="none" fill-rule="evenodd">
        <g id="dribbble">
            <rect id="Rectangle-6-Copy-3" fill="#FFFFFF" x="0" y="0" width="40" height="40"></rect>
            <g transform="translate(8.000000, 8.000000)" fill="#262626" fill-rule="nonzero" id="Dribbble">
                <g transform="translate(0.975610, 0.975610)">
                    <path d="M11.004878,21.9875122 C8.07133659,21.9875122 5.31336585,20.8451512 3.23902439,18.7707707 C1.16468293,16.6964293 0.0222439024,13.9384195 0.0222439024,11.004878 C0.0222439024,8.07133659 1.1646439,5.31336585 3.23902439,3.23902439 C5.31340488,1.16468293 8.07133659,0.0222829268 11.004878,0.0222829268 C13.9384195,0.0222829268 16.6963902,1.1646439 18.7707317,3.23902439 C20.8450732,5.31340488 21.9874732,8.07133659 21.9874732,11.004878 C21.9874732,13.9384195 20.8451122,16.6963902 18.7707317,18.7707317 C16.6963512,20.8450732 13.9384195,21.9875122 11.004878,21.9875122 Z M5.14228293,18.3754146 C6.75235122,19.6587317 8.79063415,20.4265366 11.004878,20.4265366 C12.3334634,20.4265366 13.5988683,20.1500488 14.7463024,19.6517463 C14.2583805,17.1341268 13.5601951,14.6888585 12.6663024,12.366439 C10.4892878,12.9707317 8.57642927,14.1464195 6.97217561,15.8676683 C5.96546341,16.9477073 5.37319024,17.9477073 5.14228293,18.3754146 Z M14.2128,12.0408585 C15.0402341,14.2290732 15.7006439,16.5196488 16.1827122,18.8728585 C18.3623805,17.433639 19.9118829,15.1132878 20.319961,12.4236878 C18.892761,12.0750439 17.5111415,11.8985756 16.2058537,11.8985366 C15.5271805,11.8985756 14.8600585,11.9463415 14.2128,12.0408585 Z M1.58813659,10.6987707 C1.58489756,10.8003902 1.58325854,10.902478 1.58325854,11.004878 C1.58325854,13.408078 2.48753171,15.6038244 3.97385366,17.2699707 C4.31539512,16.6916293 4.90731707,15.8018732 5.78708293,14.8498732 C7.03180488,13.5028683 9.09763902,11.7868488 12.0743024,10.9128195 C11.860839,10.4167024 11.6378146,9.92573659 11.4068293,9.44355122 C11.3068488,9.47414634 11.2059707,9.50423415 11.1045854,9.53369756 C11.1035317,9.53400976 11.1021268,9.53443902 11.1010341,9.5347122 C11.0904585,9.53779512 11.0801561,9.54076098 11.0695805,9.54376585 C11.0686829,9.54407805 11.0677073,9.54435122 11.0668098,9.54458537 C11.0502244,9.54938537 11.033678,9.55414634 11.0170537,9.55890732 C11.0158049,9.55925854 11.0145171,9.55964878 11.0131902,9.55996098 C11.0115512,9.56046829 11.0099512,9.56089756 11.0082732,9.56136585 L11.008,9.5614439 C11.0001171,9.56374634 10.9921171,9.56597073 10.9842732,9.56819512 C8.3488,10.3189463 5.25217561,10.6989659 1.76,10.6989659 C1.7568,10.6988878 1.75399024,10.6989659 1.75075122,10.6989659 C1.75063415,10.6989659 1.7505561,10.6989659 1.75043902,10.6989659 C1.69658537,10.6990829 1.64245854,10.6989659 1.58813659,10.6987707 Z M16.2055415,10.3376 C17.5539122,10.3376 18.9697561,10.5077854 20.4251707,10.8442537 C20.3891122,8.69557073 19.6304,6.72007805 18.3817756,5.15020488 C17.6784,6.07004878 16.083239,7.67867317 12.8996683,8.92546341 L12.9085659,8.94318049 L12.8990439,8.94641951 C13.1467317,9.46993171 13.3851707,10.0025756 13.6124878,10.5404878 L13.617678,10.5393951 L13.6236488,10.5541854 C14.4588098,10.4103415 15.3245268,10.337639 16.2051902,10.337639 C16.2053073,10.3376 16.2053854,10.3376 16.2055415,10.3376 C16.2055024,10.3376 16.2055024,10.3376 16.2055415,10.3376 Z M6.9884878,2.48284878 C4.33908293,3.73658537 2.36378537,6.1904 1.76897561,9.13810732 C5.17560976,9.13732683 8.17201951,8.76429268 10.6922537,8.02809756 C9.09346341,5.02040976 7.56628293,3.14493659 6.9884878,2.48284878 Z M8.54891707,1.90786341 C9.34833171,2.88093659 10.7456,4.75758049 12.192,7.52542439 C14.2461268,6.73990244 15.5322927,5.81100488 16.2682927,5.14263415 C16.8020293,4.65795122 17.1236293,4.24347317 17.2930341,3.99441951 C15.624078,2.4958439 13.419161,1.58321951 11.004878,1.58321951 C10.1557463,1.58321951 9.33209756,1.69623415 8.54891707,1.90786341 Z" id="Shape"></path>
                </g>
            </g>
        </g>
    </g>
</svg>