<?xml version="1.0" encoding="UTF-8"?>
<svg width="40px" height="40px" viewBox="0 0 40 40" version="1.1" xmlns="http://www.w3.org/2000/svg" xmlns:xlink="http://www.w3.org/1999/xlink">
    <!-- Generator: Sketch 51 (57462) - http://www.bohemiancoding.com/sketch -->
    <title>instagram</title>
    <desc>Created with Sketch.</desc>
    <defs></defs>
    <g id="Page-1" stroke="none" stroke-width="1" fill="none" fill-rule="evenodd">
        <g id="instagram">
            <rect id="Rectangle-6" fill="#FFFFFF" x="0" y="0" width="40" height="40"></rect>
            <g transform="translate(9.000000, 8.000000)" fill="#262626" fill-rule="nonzero" id="Instagram">
                <g transform="translate(0.053659, 0.702439)">
                    <circle id="Oval" cx="16.6542439" cy="5.52440976" r="1.2931122"></circle>
                    <path d="M10.9268293,16.8941268 C7.8300878,16.8941268 5.31075122,14.3747122 5.31075122,11.2780488 C5.31075122,8.18130732 7.83012683,5.66197073 10.9268293,5.66197073 C14.0235317,5.66197073 16.5429463,8.18134634 16.5429463,11.2780488 C16.5429463,14.3747902 14.0235707,16.8941268 10.9268293,16.8941268 Z M10.9268293,7.41806829 C8.79843902,7.41806829 7.06684878,9.14965854 7.06684878,11.2780488 C7.06684878,13.406439 8.79843902,15.1380293 10.9268293,15.1380293 C13.0552585,15.1380293 14.7868488,13.406439 14.7868488,11.2780488 C14.7868488,9.14965854 13.0552585,7.41806829 10.9268293,7.41806829 Z" id="Shape"></path>
                    <path d="M14.5031415,22.5173073 L7.3505561,22.5173073 C3.31586341,22.5173073 0.0334829268,19.2348878 0.0334829268,15.2002341 L0.0334829268,7.35590244 C0.0334829268,3.32124878 3.31590244,0.0388292683 7.3505561,0.0388292683 L14.5030634,0.0388292683 C18.5377561,0.0388292683 21.8201366,3.32124878 21.8201366,7.35590244 L21.8201366,15.2002341 C21.8202146,19.2348878 18.5377561,22.5173073 14.5031415,22.5173073 Z M7.3505561,1.79492683 C4.28421463,1.79492683 1.78958049,4.28956098 1.78958049,7.35590244 L1.78958049,15.2002341 C1.78958049,18.2665756 4.28421463,20.7612098 7.3505561,20.7612098 L14.5030634,20.7612098 C17.5694049,20.7612098 20.064039,18.2665756 20.064039,15.2002341 L20.064039,7.35590244 C20.064039,4.28956098 17.5694049,1.79492683 14.5030634,1.79492683 L7.3505561,1.79492683 Z" id="Shape"></path>
                </g>
            </g>
        </g>
    </g>
</svg>