<?xml version="1.0" encoding="UTF-8"?>
<svg width="40px" height="40px" viewBox="0 0 40 40" version="1.1" xmlns="http://www.w3.org/2000/svg" xmlns:xlink="http://www.w3.org/1999/xlink">
    <!-- Generator: Sketch 51 (57462) - http://www.bohemiancoding.com/sketch -->
    <title>linkedin</title>
    <desc>Created with Sketch.</desc>
    <defs></defs>
    <g id="Page-1" stroke="none" stroke-width="1" fill="none" fill-rule="evenodd">
        <g id="linkedin">
            <rect id="Rectangle-6-Copy" fill="#FFFFFF" x="0" y="0" width="40" height="40"></rect>
            <g transform="translate(10.666667, 9.333333)" fill="#262626" fill-rule="nonzero" id="Linkedin">
                <g transform="translate(0.377236, 0.897561)">
                    <polygon id="Shape" points="0.0268487805 19.6961951 4.17525854 19.6961951 4.17022439 5.1619122 0.0218536585 5.1619122"></polygon>
                    <path d="M18.4828098,9.05026341 C18.3812293,8.47180488 18.2164683,7.90236098 17.9640976,7.3710439 C17.8183415,7.06411707 17.6347317,6.77404878 17.4170537,6.51266341 C17.1630439,6.20776585 16.8251317,5.92710244 16.4819122,5.72729756 C16.1878634,5.55609756 15.8526049,5.40070244 15.5244878,5.30762927 C15.3299512,5.25795122 15.1301463,5.22380488 14.9273756,5.20097561 C14.3187902,5.1324878 13.6842927,5.16565854 13.0745366,5.2126439 C12.8994341,5.23305366 12.7255805,5.2577561 12.5532878,5.28733659 C12.3810341,5.31691707 12.2103415,5.35141463 12.0417951,5.39016585 C11.7444293,5.48183415 11.4857366,5.62638049 11.2646634,5.816 C11.0435902,6.00565854 10.8601366,6.24042927 10.7127415,6.51219512 C10.6281756,6.66817561 10.5549659,6.83274146 10.507239,7.00398049 C10.5047805,7.01299512 10.4616976,7.21549268 10.4705561,7.21549268 L10.4060098,7.21549268 L10.4009366,5.16195122 L6.25412683,5.16194759 L6.25916098,19.6993951 L10.3785366,19.6993951 C10.3785366,19.6993951 10.3785366,11.9034537 10.3785366,10.8372293 C10.3785366,10.3417366 10.6968195,9.92889756 11.1051317,9.68124878 C11.5010732,9.44113171 11.9905951,9.41962927 12.4407805,9.39047805 C12.6462049,9.37717073 12.8602537,9.3838439 13.0648585,9.4049561 C13.4201366,9.44167805 13.7781854,9.55395122 14.0437854,9.80234146 C14.4872195,10.2171317 14.5559805,10.849678 14.5559805,11.4226732 C14.5559805,11.8856195 14.5559805,12.3486049 14.5559805,12.8115902 C14.5559805,13.5109463 14.5559805,14.2102634 14.5559805,14.9095805 C14.5559805,15.6578732 14.5559805,16.4060878 14.5559805,17.1543024 C14.5559805,17.7616 14.5559805,18.3688976 14.5559805,18.9762341 C14.5559805,19.2173659 14.5559805,19.4583805 14.5559805,19.6994732 L18.6364878,19.6994732 C18.6364878,19.4586537 18.6364878,19.2178341 18.6364878,18.9770146 C18.6364878,18.3594537 18.6364878,17.7418927 18.6364878,17.1242537 C18.6364878,16.3638634 18.6364878,15.6033171 18.6364878,14.8428878 C18.6364878,13.5970341 18.6364878,12.3511805 18.6364878,11.1054049 C18.6364878,10.4202537 18.6014829,9.7264 18.4828098,9.05026341 Z" id="Shape"></path>
                    <circle id="Oval" cx="2.10107317" cy="2.10388293" r="2.08390244"></circle>
                </g>
            </g>
        </g>
    </g>
</svg>