<?xml version="1.0" encoding="UTF-8" standalone="no"?>
<svg width="21px" height="16px" viewBox="0 0 21 16" version="1.1" xmlns="http://www.w3.org/2000/svg" xmlns:xlink="http://www.w3.org/1999/xlink">
    <!-- Generator: Sketch 48.2 (47327) - http://www.bohemiancoding.com/sketch -->
    <title>iconspace_Mail_25px</title>
    <desc>Created with Sketch.</desc>
    <defs></defs>
    <g id="LINE---COLOR" stroke="none" stroke-width="1" fill="none" fill-rule="evenodd" transform="translate(-376.000000, -330.000000)">
        <g id="iconspace_Mail_25px" transform="translate(375.000000, 325.000000)">
            <polygon id="Mail" points="0 0 25 0 25 25 0 25"></polygon>
            <path d="M2.15176764,19.1582449 C2.16167843,19.1485356 2.17212111,19.1389641 2.18310897,19.1295459 L9.18310897,13.1295459 C9.68928004,12.695685 10.3400714,13.4549416 9.83390034,13.8888026 L2.86710757,19.8603392 C3.05940328,19.9499563 3.27385748,20 3.5,20 L19.5,20 C19.7304552,20 19.948772,19.9480294 20.1438698,19.855169 L13.183109,13.8888026 C12.6769379,13.4549416 13.3277293,12.695685 13.8339003,13.1295459 L20.8339003,19.1295459 C20.8406757,19.1353534 20.8472438,19.1412192 20.8536077,19.1471396 C20.9474467,18.9512126 21,18.7317435 21,18.5 L21,7.5 C21,6.67157288 20.3284271,6 19.5,6 L3.5,6 C2.67157288,6 2,6.67157288 2,7.5 L2,18.5 C2,18.736132 2.05456251,18.9595203 2.15176764,19.1582449 Z M3.5,5 L19.5,5 C20.8807119,5 22,6.11928813 22,7.5 L22,18.5 C22,19.8807119 20.8807119,21 19.5,21 L3.5,21 C2.11928813,21 1,19.8807119 1,18.5 L1,7.5 C1,6.11928813 2.11928813,5 3.5,5 Z" id="Mail" fill="#3B5AFB" fill-rule="nonzero"></path>
            <path d="M21,8.46040076 L12.9336988,14.1068116 C12.0728984,14.7093719 10.9271874,14.7093719 10.0663871,14.1068116 L2,8.46034066 L2,7.2396851 L10.6398494,13.2875797 C11.1563296,13.6491158 11.8437562,13.6491158 12.3602364,13.2875797 L21,7.2396851 L21,8.46040076 Z" id="Mail" fill="#44D5E9" fill-rule="nonzero"></path>
        </g>
    </g>
</svg>