<?xml version="1.0" encoding="UTF-8"?>
<svg width="40px" height="40px" viewBox="0 0 40 40" version="1.1" xmlns="http://www.w3.org/2000/svg" xmlns:xlink="http://www.w3.org/1999/xlink">
    <!-- Generator: Sketch 51 (57462) - http://www.bohemiancoding.com/sketch -->
    <title>Monogram</title>
    <desc>Created with Sketch.</desc>
    <defs></defs>
    <g id="Page-1" stroke="none" stroke-width="1" fill="none" fill-rule="evenodd">
        <g id="Monogram" fill-rule="nonzero">
            <rect id="Rectangle-path" fill="#12100E" x="0" y="0" width="40" height="40"></rect>
            <path d="M9.27326486,13.1955059 C9.30639616,12.8690757 9.18156404,12.5464358 8.93713041,12.3267359 L6.44724556,9.33568489 L6.44724556,8.88888889 L14.178338,8.88888889 L20.1540616,21.9576719 L25.4077187,8.88888889 L32.7777778,8.88888889 L32.7777778,9.33568489 L30.6489263,11.3710889 C30.4653959,11.5105941 30.3743555,11.7398807 30.4123872,11.9668169 L30.4123872,26.9220721 C30.3743555,27.1490082 30.4653959,27.3782947 30.6489263,27.5178 L32.7279801,29.553204 L32.7279801,30 L22.2704638,30 L22.2704638,29.553204 L24.4242142,27.468156 C24.6358543,27.2571689 24.6358543,27.195114 24.6358543,26.8724281 L24.6358543,14.7841139 L18.6476813,29.950356 L17.8384687,29.950356 L10.8667912,14.7841139 L10.8667912,24.9487229 C10.8086638,25.3760717 10.950993,25.8063184 11.2527233,26.115357 L14.0538438,29.50356 L14.0538438,29.950356 L6.11111111,29.950356 L6.11111111,29.50356 L8.91223156,26.115357 C9.21176497,25.805806 9.34579484,25.3727053 9.27326486,24.9487229 L9.27326486,13.1955059 Z" id="Shape" fill="#FFFFFF"></path>
        </g>
    </g>
</svg>