<?xml version="1.0" encoding="UTF-8"?>
<svg width="40px" height="40px" viewBox="0 0 40 40" version="1.1" xmlns="http://www.w3.org/2000/svg" xmlns:xlink="http://www.w3.org/1999/xlink">
    <!-- Generator: Sketch 51 (57462) - http://www.bohemiancoding.com/sketch -->
    <title>twitter</title>
    <desc>Created with Sketch.</desc>
    <defs></defs>
    <g id="Page-1" stroke="none" stroke-width="1" fill="none" fill-rule="evenodd">
        <g id="twitter">
            <rect id="Rectangle-6-Copy-2" fill="#FFFFFF" x="0" y="0" width="40" height="40"></rect>
            <g transform="translate(8.000000, 11.666667)" fill="#262626" fill-rule="nonzero" id="Twitter">
                <g transform="translate(0.429268, 0.320325)">
                    <path d="M20.5653854,2.94684878 C20.5653854,2.94684878 22.6212293,1.21658537 22.5560976,0.44444878 C22.5560976,0.44444878 20.184,1.48632195 19.6630244,1.53283902 C19.6630244,1.53283902 19.4980683,1.36686829 19.2280585,1.1486439 C19.1380293,1.07590244 19.0363707,0.997346341 18.9251512,0.917229268 C18.7192195,0.766868293 18.5024,0.637658537 18.2772683,0.528195122 C18.164722,0.473482927 18.0501463,0.42364878 17.9339707,0.378341463 C17.1777171,0.0469463415 16.3491902,-0.0342243902 15.535922,0.0547512195 C15.4197073,0.0674731707 15.3038829,0.0836682927 15.1885659,0.103063415 C13.8396878,0.31422439 12.6861268,1.13283902 11.9601951,2.24897561 C11.8950244,2.35079024 11.8346146,2.45529756 11.7795512,2.56245854 C11.6695805,2.77678049 11.5809561,3.00171707 11.5186341,3.23637073 C11.4941659,3.32300488 11.4673951,3.42388293 11.4421463,3.53159024 C11.4168585,3.63929756 11.3930146,3.75383415 11.3744,3.86778537 C11.2999805,4.32362927 11.3744,5.80273171 11.3744,5.80273171 C11.3744,5.80273171 5.37428293,5.9888 1.52300488,1.00261463 C1.52300488,1.00261463 -0.374673171,4.59340488 2.89978537,7.10509268 C2.89978537,7.10509268 2.23387317,7.40277073 0.976078049,6.65857561 C0.976078049,6.65857561 0.350907317,9.39348293 4.40679024,11.2725854 L2.43473171,11.2725854 C2.43473171,11.2725854 3.12312195,14.3052098 6.78837073,14.5842732 C6.78837073,14.5842732 5.05810732,16.9098927 0.0346926829,16.5563707 C0.0346926829,16.5563707 4.56698537,19.7077854 10.4060488,18.2451902 C10.5102829,18.2190439 10.6149854,18.1914537 10.720078,18.1623805 C11.6442537,17.8773073 12.5745171,17.542439 13.4194341,17.0933463 C13.4931512,17.0551415 13.5669073,17.016 13.6407415,16.975961 C13.8622829,16.856078 14.084722,16.7284293 14.3080195,16.5928976 C14.3080195,16.5928976 20.4473366,13.2664195 20.9496195,4.67137561 C20.9496195,4.67137561 22.2398829,3.91426341 23.0677463,2.46310244 C23.0677463,2.46314146 20.7421268,3.00265366 20.5653854,2.94684878 Z" id="Twitter_1_"></path>
                </g>
            </g>
        </g>
    </g>
</svg>